<svg width="512" height="512" viewBox="0 0 512 512" fill="none" xmlns="http://www.w3.org/2000/svg">
  <defs>
    <linearGradient id="bg" x1="52" y1="42" x2="456" y2="470" gradientUnits="userSpaceOnUse">
      <stop stop-color="#082F49"/>
      <stop offset="0.52" stop-color="#0F766E"/>
      <stop offset="1" stop-color="#67E8F9"/>
    </linearGradient>
    <linearGradient id="accent" x1="142" y1="126" x2="366" y2="354" gradientUnits="userSpaceOnUse">
      <stop stop-color="#ECFEFF"/>
      <stop offset="1" stop-color="#A5F3FC"/>
    </linearGradient>
  </defs>

  <rect width="512" height="512" rx="124" fill="url(#bg)"/>
  <circle cx="390" cy="118" r="54" fill="#ffffff" fill-opacity="0.08"/>
  <circle cx="122" cy="408" r="76" fill="#ffffff" fill-opacity="0.06"/>

  <path d="M132 149C132 136.297 142.297 126 155 126H357C369.703 126 380 136.297 380 149V208C380 220.703 369.703 231 357 231H155C142.297 231 132 220.703 132 208V149Z" fill="url(#accent)"/>
  <path d="M154 190H300" stroke="#0C4A6E" stroke-width="24" stroke-linecap="round"/>
  <path d="M154 302C154 289.297 164.297 279 177 279H289C301.703 279 312 289.297 312 302V357C312 369.703 301.703 380 289 380H177C164.297 380 154 369.703 154 357V302Z" fill="#ECFEFF"/>
  <path d="M232 231V279" stroke="#CFFAFE" stroke-width="24" stroke-linecap="round"/>
  <path d="M356 232V302C356 344.526 321.526 379 279 379H244" stroke="#CFFAFE" stroke-width="24" stroke-linecap="round"/>
  <path d="M154 337H246" stroke="#0F766E" stroke-width="22" stroke-linecap="round"/>
  <path d="M340 296L380 296" stroke="#CFFAFE" stroke-width="24" stroke-linecap="round"/>
  <path d="M340 344L380 344" stroke="#CFFAFE" stroke-width="24" stroke-linecap="round"/>
</svg>
